<svg xmlns="http://www.w3.org/2000/svg" width="225.534" height="476.96" viewBox="0 0 225.534 476.96">
  <metadata><?xpacket begin="﻿" id="W5M0MpCehiHzreSzNTczkc9d"?>
<x:xmpmeta xmlns:x="adobe:ns:meta/" x:xmptk="Adobe XMP Core 5.6-c138 79.159824, 2016/09/14-01:09:01        ">
   <rdf:RDF xmlns:rdf="http://www.w3.org/1999/02/22-rdf-syntax-ns#">
      <rdf:Description rdf:about=""/>
   </rdf:RDF>
</x:xmpmeta>
                                                                                                    
                                                                                                    
                                                                                                    
                                                                                                    
                                                                                                    
                                                                                                    
                                                                                                    
                                                                                                    
                                                                                                    
                                                                                                    
                                                                                                    
                                                                                                    
                                                                                                    
                                                                                                    
                                                                                                    
                                                                                                    
                                                                                                    
                                                                                                    
                                                                                                    
                                                                                                    
                           
<?xpacket end="w"?></metadata>
<defs>
    <style>
      .cls-1 {
        fill-rule: evenodd;
      }
    </style>
  </defs>
  <path id="device-contour" class="cls-1" d="M1025.61,1020.39H849.239a24.589,24.589,0,0,0-24.58,24.54v427.88a24.591,24.591,0,0,0,24.58,24.55H1025.61a24.587,24.587,0,0,0,24.58-24.55V1044.93A24.585,24.585,0,0,0,1025.61,1020.39Zm19.97,452.42a19.956,19.956,0,0,1-19.97,19.94H849.239a19.954,19.954,0,0,1-19.965-19.94V1044.93A19.945,19.945,0,0,1,849.239,1025h25.6a2.568,2.568,0,0,1,2.571,2.56v1.1a13.2,13.2,0,0,0,13.208,13.19H984.5a13.2,13.2,0,0,0,13.208-13.19v-1.1a2.567,2.567,0,0,1,2.567-2.56h25.34a19.948,19.948,0,0,1,19.97,19.93v427.88Z" transform="translate(-824.656 -1020.38)"/>
</svg>
