<svg xmlns="http://www.w3.org/2000/svg" width="48.812" height="61.093" viewBox="0 0 48.812 61.093">
  <metadata><?xpacket begin="﻿" id="W5M0MpCehiHzreSzNTczkc9d"?>
<x:xmpmeta xmlns:x="adobe:ns:meta/" x:xmptk="Adobe XMP Core 5.6-c138 79.159824, 2016/09/14-01:09:01        ">
   <rdf:RDF xmlns:rdf="http://www.w3.org/1999/02/22-rdf-syntax-ns#">
      <rdf:Description rdf:about=""/>
   </rdf:RDF>
</x:xmpmeta>
                                                                                                    
                                                                                                    
                                                                                                    
                                                                                                    
                                                                                                    
                                                                                                    
                                                                                                    
                                                                                                    
                                                                                                    
                                                                                                    
                                                                                                    
                                                                                                    
                                                                                                    
                                                                                                    
                                                                                                    
                                                                                                    
                                                                                                    
                                                                                                    
                                                                                                    
                                                                                                    
                           
<?xpacket end="w"?></metadata>
<defs>
    <style>
      .cls-1 {
        fill: #475b06;
        fill-rule: evenodd;
      }
    </style>
  </defs>
  <path id="ic-fundraiser-started" class="cls-1" d="M322.961,688.39l-15.693-6.918a0.9,0.9,0,0,0-1.262.822v20.427a1.64,1.64,0,0,0,.979,1.5l15.25,6.721a0.9,0.9,0,0,0,1.262-.821v-20.91A0.9,0.9,0,0,0,322.961,688.39ZM321.7,708.742l-13.9-6.124V689.239l13.9,6.125v13.378Zm0-15.342-13.9-6.124v-3.6l13.9,6.125v3.6Zm5.048-27.709v-2a7.993,7.993,0,0,1,1.344.421,0.754,0.754,0,0,0,.6-0.785c0-.66-1.207-0.876-1.948-0.9v-0.3a0.369,0.369,0,0,0-.387-0.284,0.353,0.353,0,0,0-.387.284v0.319a2.22,2.22,0,0,0-2.21,2.219c0,1.456,1.173,1.9,2.21,2.286v2.265c-1-.114-1.344-0.853-1.777-0.853a0.819,0.819,0,0,0-.638.8c0,0.637,1.037,1.376,2.415,1.411v0.318a0.353,0.353,0,0,0,.387.284,0.369,0.369,0,0,0,.387-0.284v-0.353a2.321,2.321,0,0,0,2.153-2.412C328.9,666.578,327.761,666.066,326.747,665.691Zm-0.683-.251a1.066,1.066,0,0,1-.911-0.922,0.88,0.88,0,0,1,.911-0.8v1.717Zm0.592,3.767v-1.981a1.134,1.134,0,0,1,.854,1.047A0.931,0.931,0,0,1,326.656,669.207ZM350,693.256a0.9,0.9,0,0,0-.9.9V705.3a0.212,0.212,0,0,1-.127.194L327.4,715V685.657l5.627-2.48,16.072-7.083v13.868a0.9,0.9,0,0,0,1.8,0V674.714a0.9,0.9,0,0,0-.541-0.822l-13.113-5.7a11.073,11.073,0,0,0-8.705-11.986,0.9,0.9,0,1,0-.37,1.757,9.244,9.244,0,0,1,5.025,15.145H331.3a7.905,7.905,0,1,0-10.062,0h-1.923a9.248,9.248,0,0,1,5.029-15.146,0.9,0.9,0,1,0-.369-1.757,11.074,11.074,0,0,0-8.687,12.193l-12.641,5.491a0.9,0.9,0,0,0-.539.81s0,0.007,0,.011h0V705.3a2.008,2.008,0,0,0,1.2,1.837L326.137,717.2a0.912,0.912,0,0,0,.726,0L349.7,707.138a2.012,2.012,0,0,0,1.2-1.838V694.154A0.9,0.9,0,0,0,350,693.256Zm-23.745-32.351a6.105,6.105,0,1,1-2.785,11.535A6.08,6.08,0,0,1,326.252,660.905ZM303.9,705.3V676.094l21.7,9.563V715l-21.573-9.508A0.212,0.212,0,0,1,303.9,705.3Zm22.6-21.21-21.257-9.368,10.424-4.529a10.941,10.941,0,0,0,1.382,2.918h-0.518a0.9,0.9,0,1,0,0,1.8h19.446a0.9,0.9,0,1,0,0-1.8h-0.522A10.963,10.963,0,0,0,336.893,670l10.863,4.72Zm-7.085,13.852-8.677-3.825a0.9,0.9,0,1,0-.726,1.644l8.677,3.824A0.9,0.9,0,1,0,319.415,697.942Zm0,4.042-8.677-3.824a0.9,0.9,0,1,0-.726,1.643l8.677,3.825A0.9,0.9,0,1,0,319.415,701.984Z" transform="translate(-302.094 -656.188)"/>
</svg>
