<svg xmlns="http://www.w3.org/2000/svg" width="28" height="28" viewBox="0 0 28 28">
  <metadata><?xpacket begin="﻿" id="W5M0MpCehiHzreSzNTczkc9d"?>
<x:xmpmeta xmlns:x="adobe:ns:meta/" x:xmptk="Adobe XMP Core 5.6-c138 79.159824, 2016/09/14-01:09:01        ">
   <rdf:RDF xmlns:rdf="http://www.w3.org/1999/02/22-rdf-syntax-ns#">
      <rdf:Description rdf:about=""/>
   </rdf:RDF>
</x:xmpmeta>
                                                                                                    
                                                                                                    
                                                                                                    
                                                                                                    
                                                                                                    
                                                                                                    
                                                                                                    
                                                                                                    
                                                                                                    
                                                                                                    
                                                                                                    
                                                                                                    
                                                                                                    
                                                                                                    
                                                                                                    
                                                                                                    
                                                                                                    
                                                                                                    
                                                                                                    
                                                                                                    
                           
<?xpacket end="w"?></metadata>
<defs>
    <style>
      .cls-1 {
        fill-rule: evenodd;
      }
    </style>
  </defs>
  <path id="ic-faq-2" class="cls-1" d="M650.295,3793.22a0.77,0.77,0,0,1-.539-0.22l-3.637-3.64h-5.88a0.761,0.761,0,0,1-.762-0.76v-20.11a0.761,0.761,0,0,1,.762-0.76h20.112a0.761,0.761,0,0,1,.762.76v20.11a0.761,0.761,0,0,1-.762.76H654.47l-3.637,3.64A0.77,0.77,0,0,1,650.295,3793.22ZM641,3787.84h5.435a0.768,0.768,0,0,1,.538.22l3.322,3.32,3.321-3.32a0.77,0.77,0,0,1,.539-0.22h5.434v-18.59H641v18.59Zm9.295-4.99a0.682,0.682,0,0,1-.734-0.37v-4.88a0.644,0.644,0,0,1,.734-0.35,0.675,0.675,0,0,1,.746.35v4.88A0.743,0.743,0,0,1,650.295,3782.85Zm0-7.29a0.676,0.676,0,1,1,0-1.33,0.739,0.739,0,0,1,.785.66A0.752,0.752,0,0,1,650.295,3775.56Z" transform="translate(-636.297 -3766.47)"/>
</svg>
