<svg xmlns="http://www.w3.org/2000/svg" width="28" height="28" viewBox="0 0 28 28">
  <metadata><?xpacket begin="﻿" id="W5M0MpCehiHzreSzNTczkc9d"?>
<x:xmpmeta xmlns:x="adobe:ns:meta/" x:xmptk="Adobe XMP Core 5.6-c138 79.159824, 2016/09/14-01:09:01        ">
   <rdf:RDF xmlns:rdf="http://www.w3.org/1999/02/22-rdf-syntax-ns#">
      <rdf:Description rdf:about=""/>
   </rdf:RDF>
</x:xmpmeta>
                                                                                                    
                                                                                                    
                                                                                                    
                                                                                                    
                                                                                                    
                                                                                                    
                                                                                                    
                                                                                                    
                                                                                                    
                                                                                                    
                                                                                                    
                                                                                                    
                                                                                                    
                                                                                                    
                                                                                                    
                                                                                                    
                                                                                                    
                                                                                                    
                                                                                                    
                                                                                                    
                           
<?xpacket end="w"?></metadata>
<defs>
    <style>
      .cls-1 {
        fill-rule: evenodd;
      }
    </style>
  </defs>
  <path id="ic-faq-1" class="cls-1" d="M322.854,3785.42a0.734,0.734,0,0,0,.039.56,0.726,0.726,0,0,0,.657.4,0.739,0.739,0,0,0,.328-0.07,22.452,22.452,0,0,0,2.815-1.65,22.542,22.542,0,0,0,2.816,1.65,0.737,0.737,0,0,0,.656-1.32,22.291,22.291,0,0,1-2.256-1.28c2.263-2.01,2.154-3.66,1.882-4.48a3.3,3.3,0,0,0-6.195,0c-0.272.82-.381,2.47,1.881,4.48a22.291,22.291,0,0,1-2.256,1.28A0.734,0.734,0,0,0,322.854,3785.42Zm2.134-5.73a1.828,1.828,0,0,1,3.411,0c0.289,0.87-.316,1.98-1.706,3.13C325.3,3781.67,324.7,3780.56,324.988,3779.69Zm12.709-12.38h-5.6a5.449,5.449,0,0,0-10.8,0h-5.6a0.734,0.734,0,0,0-.734.73v21.07a0.734,0.734,0,0,0,.734.73h8.645a0.735,0.735,0,0,0,0-1.47h-7.912v-13.31h20.54v13.31h-7.912a0.735,0.735,0,0,0,0,1.47H337.7a0.734,0.734,0,0,0,.734-0.73v-21.07A0.734,0.734,0,0,0,337.7,3767.31Zm-11-3.25a3.98,3.98,0,0,1,3.17,6.39h-6.339A3.98,3.98,0,0,1,326.693,3764.06Zm-6.287,6.39a0.735,0.735,0,0,0,0,1.47h12.575a0.735,0.735,0,0,0,0-1.47h-1.4a5.32,5.32,0,0,0,.513-1.67h4.87v4.82h-20.54v-4.82h4.871a5.32,5.32,0,0,0,.513,1.67h-1.4Zm6.287-.1a0.734,0.734,0,0,0,.734-0.73v-3.15a0.734,0.734,0,0,0-1.467,0v3.15A0.734,0.734,0,0,0,326.693,3770.35Zm0,18.02a0.735,0.735,0,1,0,.734.74A0.736,0.736,0,0,0,326.693,3788.37Z" transform="translate(-312.703 -3762.215)"/>
</svg>
