<svg xmlns="http://www.w3.org/2000/svg" width="28" height="28" viewBox="0 0 28 28">
  <metadata><?xpacket begin="﻿" id="W5M0MpCehiHzreSzNTczkc9d"?>
<x:xmpmeta xmlns:x="adobe:ns:meta/" x:xmptk="Adobe XMP Core 5.6-c138 79.159824, 2016/09/14-01:09:01        ">
   <rdf:RDF xmlns:rdf="http://www.w3.org/1999/02/22-rdf-syntax-ns#">
      <rdf:Description rdf:about=""/>
   </rdf:RDF>
</x:xmpmeta>
                                                                                                    
                                                                                                    
                                                                                                    
                                                                                                    
                                                                                                    
                                                                                                    
                                                                                                    
                                                                                                    
                                                                                                    
                                                                                                    
                                                                                                    
                                                                                                    
                                                                                                    
                                                                                                    
                                                                                                    
                                                                                                    
                                                                                                    
                                                                                                    
                                                                                                    
                                                                                                    
                           
<?xpacket end="w"?></metadata>
<defs>
    <style>
      .cls-1 {
        fill-rule: evenodd;
      }
    </style>
  </defs>
  <path id="ic-faq-3" class="cls-1" d="M948.325,3790.38a17.6,17.6,0,0,1-12.014-5.22l-0.067-.07h0a16.575,16.575,0,0,1-5.347-12.01l0.008-.31,0.2-.24a11.429,11.429,0,0,1,4.953-3.58,1.751,1.751,0,0,1,.621-0.11,2.2,2.2,0,0,1,1.959,1.05c0.52,1.4,1.175,3.23,1.652,4.99a2.17,2.17,0,0,1-.7,2.11l-1.682,1.04a1.221,1.221,0,0,0,.227.56,23.455,23.455,0,0,0,2.245,2.57,23.164,23.164,0,0,0,2.612,2.16,0.925,0.925,0,0,0,.526.2l0.582-.79,0.536-.83a2.309,2.309,0,0,1,1.764-.72,1.416,1.416,0,0,1,.369.04,24.115,24.115,0,0,1,5.225,1.64,2.176,2.176,0,0,1,.889,2.49,11.187,11.187,0,0,1-2.619,3.92,12.508,12.508,0,0,1-1.05.91l-0.247.18-0.636.02h0ZM932.8,3773.43a15.09,15.09,0,0,0,4.793,10.36l0.092,0.09a15.616,15.616,0,0,0,10.6,4.64c0.222-.18.434-0.37,0.633-0.56a9.447,9.447,0,0,0,2.19-3.28c-0.01-.01-0.048-0.12-0.088-0.21a23.08,23.08,0,0,0-4.669-1.45c-0.049.01-.147,0.03-0.224,0.05l-0.957,1.47a2.371,2.371,0,0,1-3.3.28,25.566,25.566,0,0,1-2.835-2.35,26.212,26.212,0,0,1-2.437-2.78,2.589,2.589,0,0,1-.522-2.03,1.783,1.783,0,0,1,.822-1.2l1.5-.93a0.971,0.971,0,0,0,.038-0.25c-0.418-1.52-1.01-3.2-1.5-4.53a0.834,0.834,0,0,0-.258-0.05,9.719,9.719,0,0,0-3.307,2.12c-0.193.19-.382,0.39-0.572,0.61h0Z" transform="translate(-927.938 -3765.61)"/>
</svg>
