<svg xmlns="http://www.w3.org/2000/svg" width="17.814" height="13.125" viewBox="0 0 17.814 13.125">
  <metadata><?xpacket begin="﻿" id="W5M0MpCehiHzreSzNTczkc9d"?>
<x:xmpmeta xmlns:x="adobe:ns:meta/" x:xmptk="Adobe XMP Core 5.6-c138 79.159824, 2016/09/14-01:09:01        ">
   <rdf:RDF xmlns:rdf="http://www.w3.org/1999/02/22-rdf-syntax-ns#">
      <rdf:Description rdf:about=""/>
   </rdf:RDF>
</x:xmpmeta>
                                                                                                    
                                                                                                    
                                                                                                    
                                                                                                    
                                                                                                    
                                                                                                    
                                                                                                    
                                                                                                    
                                                                                                    
                                                                                                    
                                                                                                    
                                                                                                    
                                                                                                    
                                                                                                    
                                                                                                    
                                                                                                    
                                                                                                    
                                                                                                    
                                                                                                    
                                                                                                    
                           
<?xpacket end="w"?></metadata>
<defs>
    <style>
      .cls-1 {
        fill: #445903;
        fill-rule: evenodd;
      }
    </style>
  </defs>
  <path id="ic-mail" class="cls-1" d="M1004.14,30.889H990a1.853,1.853,0,0,1-1.836-1.866v-9.4A1.853,1.853,0,0,1,990,17.753h14.138a1.858,1.858,0,0,1,1.84,1.866v9.4a1.858,1.858,0,0,1-1.84,1.866h0ZM990,19.336a0.282,0.282,0,0,0-.279.283v9.4a0.282,0.282,0,0,0,.279.284h14.138a0.285,0.285,0,0,0,.28-0.284v-9.4a0.284,0.284,0,0,0-.28-0.283H990Zm14.138,11.157H990a1.456,1.456,0,0,1-1.35-.95,0.4,0.4,0,0,1,.1-0.436l5.519-5a0.385,0.385,0,0,1,.55.031,0.4,0.4,0,0,1-.032.559l-5.28,4.787A0.658,0.658,0,0,0,990,29.7h14.138a0.655,0.655,0,0,0,.49-0.22l-5.342-4.843a0.4,0.4,0,0,1-.031-0.559,0.384,0.384,0,0,1,.549-0.032l5.584,5.059a0.393,0.393,0,0,1,.1.435,1.447,1.447,0,0,1-1.35.951h0Zm-7.068-3.556a0.38,0.38,0,0,1-.259-0.1l-8.056-7.3a0.4,0.4,0,0,1-.1-0.436,1.456,1.456,0,0,1,1.35-.95h14.138a1.447,1.447,0,0,1,1.35.951,0.393,0.393,0,0,1-.1.435l-8.059,7.3a0.382,0.382,0,0,1-.259.1h0Zm-7.558-7.778,7.558,6.851,7.558-6.852a0.654,0.654,0,0,0-.49-0.22H990a0.658,0.658,0,0,0-.488.22h0Z" transform="translate(-988.156 -17.75)"/>
</svg>
