<svg xmlns="http://www.w3.org/2000/svg" width="16" height="16" viewBox="0 0 16 16">
  <metadata><?xpacket begin="﻿" id="W5M0MpCehiHzreSzNTczkc9d"?>
<x:xmpmeta xmlns:x="adobe:ns:meta/" x:xmptk="Adobe XMP Core 5.6-c138 79.159824, 2016/09/14-01:09:01        ">
   <rdf:RDF xmlns:rdf="http://www.w3.org/1999/02/22-rdf-syntax-ns#">
      <rdf:Description rdf:about=""/>
   </rdf:RDF>
</x:xmpmeta>
                                                                                                    
                                                                                                    
                                                                                                    
                                                                                                    
                                                                                                    
                                                                                                    
                                                                                                    
                                                                                                    
                                                                                                    
                                                                                                    
                                                                                                    
                                                                                                    
                                                                                                    
                                                                                                    
                                                                                                    
                                                                                                    
                                                                                                    
                                                                                                    
                                                                                                    
                                                                                                    
                           
<?xpacket end="w"?></metadata>
<defs>
    <style>
      .cls-1 {
        fill: #fff;
        fill-rule: evenodd;
      }
    </style>
  </defs>
  <path id="ic-mail-footer" class="cls-1" d="M981.307,4125.51h-12.67a1.66,1.66,0,0,1-1.645-1.67v-8.43a1.66,1.66,0,0,1,1.645-1.67h12.67a1.66,1.66,0,0,1,1.645,1.67v8.43a1.66,1.66,0,0,1-1.645,1.67h0Zm-12.67-10.35a0.249,0.249,0,0,0-.25.25v8.43a0.249,0.249,0,0,0,.25.25h12.67a0.249,0.249,0,0,0,.25-0.25v-8.43a0.249,0.249,0,0,0-.25-0.25h-12.67Zm12.67,10h-12.67a1.316,1.316,0,0,1-1.21-.85,0.355,0.355,0,0,1,.094-0.39l4.946-4.49a0.341,0.341,0,0,1,.492.03,0.358,0.358,0,0,1-.028.5l-4.732,4.29a0.608,0.608,0,0,0,.438.2h12.67a0.6,0.6,0,0,0,.438-0.2l-4.787-4.34a0.358,0.358,0,0,1-.028-0.5,0.342,0.342,0,0,1,.493-0.03l5,4.54a0.344,0.344,0,0,1,.094.38,1.309,1.309,0,0,1-1.21.86h0Zm-6.335-3.19a0.344,0.344,0,0,1-.232-0.09l-7.219-6.54a0.364,0.364,0,0,1-.094-0.39,1.311,1.311,0,0,1,1.21-.86h12.67a1.309,1.309,0,0,1,1.21.86,0.364,0.364,0,0,1-.094.39l-7.218,6.54a0.346,0.346,0,0,1-.233.09h0ZM968.2,4115l6.772,6.14,6.773-6.14a0.6,0.6,0,0,0-.438-0.2h-12.67a0.6,0.6,0,0,0-.437.2h0Z" transform="translate(-966.969 -4111.625)"/>
</svg>
