<svg xmlns="http://www.w3.org/2000/svg" width="16" height="16" viewBox="0 0 16 16">
  <metadata><?xpacket begin="﻿" id="W5M0MpCehiHzreSzNTczkc9d"?>
<x:xmpmeta xmlns:x="adobe:ns:meta/" x:xmptk="Adobe XMP Core 5.6-c138 79.159824, 2016/09/14-01:09:01        ">
   <rdf:RDF xmlns:rdf="http://www.w3.org/1999/02/22-rdf-syntax-ns#">
      <rdf:Description rdf:about=""/>
   </rdf:RDF>
</x:xmpmeta>
                                                                                                    
                                                                                                    
                                                                                                    
                                                                                                    
                                                                                                    
                                                                                                    
                                                                                                    
                                                                                                    
                                                                                                    
                                                                                                    
                                                                                                    
                                                                                                    
                                                                                                    
                                                                                                    
                                                                                                    
                                                                                                    
                                                                                                    
                                                                                                    
                                                                                                    
                                                                                                    
                           
<?xpacket end="w"?></metadata>
<defs>
    <style>
      .cls-1 {
        fill: #fff;
        fill-rule: evenodd;
      }
    </style>
  </defs>
  <path id="ic-phone-footer" class="cls-1" d="M978.721,4076.36a11.92,11.92,0,0,1-8.138-3.53l-0.046-.05h0a11.235,11.235,0,0,1-3.622-8.14l0-.21,0.133-.16a7.312,7.312,0,0,1,.624-0.69,7.923,7.923,0,0,1,2.731-1.74,1.385,1.385,0,0,1,.421-0.07,1.5,1.5,0,0,1,1.327.71c0.352,0.95.8,2.19,1.119,3.38a1.47,1.47,0,0,1-.476,1.43l-1.139.71a0.825,0.825,0,0,0,.153.38,15.574,15.574,0,0,0,1.521,1.73,14.9,14.9,0,0,0,1.77,1.47,0.6,0.6,0,0,0,.356.13l0.394-.53,0.364-.56a1.545,1.545,0,0,1,1.195-.49,1.834,1.834,0,0,1,.249.02,16.469,16.469,0,0,1,3.54,1.12,1.473,1.473,0,0,1,.6,1.69,7.591,7.591,0,0,1-1.775,2.65,6.923,6.923,0,0,1-.711.61l-0.168.13-0.431.01h0ZM968.2,4064.88a10.225,10.225,0,0,0,3.247,7.02l0.062,0.06a10.614,10.614,0,0,0,7.182,3.14c0.15-.12.294-0.25,0.428-0.38a6.322,6.322,0,0,0,1.484-2.22,1.428,1.428,0,0,1-.059-0.14,14.781,14.781,0,0,0-3.164-.98,1.334,1.334,0,0,0-.152.03l-0.648,1a1.621,1.621,0,0,1-2.238.19,16.106,16.106,0,0,1-3.571-3.48,1.756,1.756,0,0,1-.354-1.38,1.239,1.239,0,0,1,.557-0.81l1.018-.63a0.572,0.572,0,0,0,.026-0.17c-0.283-1.03-.684-2.16-1.015-3.07a1.212,1.212,0,0,0-.175-0.03,6.525,6.525,0,0,0-2.241,1.44,4.97,4.97,0,0,0-.387.41h0Z" transform="translate(-966.406 -4061.08)"/>
</svg>
