<svg xmlns="http://www.w3.org/2000/svg" width="17" height="16.563" viewBox="0 0 17 16.563">
  <metadata><?xpacket begin="﻿" id="W5M0MpCehiHzreSzNTczkc9d"?>
<x:xmpmeta xmlns:x="adobe:ns:meta/" x:xmptk="Adobe XMP Core 5.6-c138 79.159824, 2016/09/14-01:09:01        ">
   <rdf:RDF xmlns:rdf="http://www.w3.org/1999/02/22-rdf-syntax-ns#">
      <rdf:Description rdf:about=""/>
   </rdf:RDF>
</x:xmpmeta>
                                                                                                    
                                                                                                    
                                                                                                    
                                                                                                    
                                                                                                    
                                                                                                    
                                                                                                    
                                                                                                    
                                                                                                    
                                                                                                    
                                                                                                    
                                                                                                    
                                                                                                    
                                                                                                    
                                                                                                    
                                                                                                    
                                                                                                    
                                                                                                    
                                                                                                    
                                                                                                    
                           
<?xpacket end="w"?></metadata>
<defs>
    <style>
      .cls-1 {
        fill: #445903;
        fill-rule: evenodd;
      }
    </style>
  </defs>
  <path id="ic-phone" class="cls-1" d="M853.3,31.5a13.515,13.515,0,0,1-9.239-4.01l-0.052-.054h0A12.756,12.756,0,0,1,839.9,18.2l0-.238,0.152-.186a8.77,8.77,0,0,1,.708-0.783,8.946,8.946,0,0,1,3.1-1.968,1.35,1.35,0,0,1,.477-0.081,1.694,1.694,0,0,1,1.507.8c0.4,1.081.9,2.491,1.27,3.839a1.674,1.674,0,0,1-.54,1.627l-1.294.8a0.942,0.942,0,0,0,.175.432,17.953,17.953,0,0,0,1.726,1.971,17.926,17.926,0,0,0,2.009,1.667,0.745,0.745,0,0,0,.4.15l0.447-.608,0.413-.633a1.768,1.768,0,0,1,1.356-.557,1.314,1.314,0,0,1,.284.028,18.723,18.723,0,0,1,4.018,1.263,1.674,1.674,0,0,1,.684,1.917,8.653,8.653,0,0,1-2.014,3.018,9.092,9.092,0,0,1-.807.693l-0.191.145L853.3,31.5h0ZM841.362,18.472a11.587,11.587,0,0,0,3.686,7.963l0.071,0.069a12.021,12.021,0,0,0,8.153,3.573c0.17-.138.333-0.282,0.486-0.43a7.246,7.246,0,0,0,1.684-2.525c-0.007-.006-0.036-0.093-0.067-0.162a17.444,17.444,0,0,0-3.591-1.11,1.752,1.752,0,0,0-.173.035l-0.735,1.13a1.826,1.826,0,0,1-2.541.216,19.343,19.343,0,0,1-2.18-1.811,19.636,19.636,0,0,1-1.874-2.138,1.983,1.983,0,0,1-.4-1.56,1.38,1.38,0,0,1,.632-0.921l1.156-.715a0.757,0.757,0,0,0,.029-0.2c-0.321-1.167-.776-2.454-1.152-3.479a0.676,0.676,0,0,0-.2-0.041A7.506,7.506,0,0,0,841.8,18c-0.149.145-.294,0.3-0.44,0.472h0Z" transform="translate(-839.906 -14.938)"/>
</svg>
