<svg xmlns="http://www.w3.org/2000/svg" width="55.5" height="55.5" viewBox="0 0 55.5 55.5">
  <metadata><?xpacket begin="﻿" id="W5M0MpCehiHzreSzNTczkc9d"?>
<x:xmpmeta xmlns:x="adobe:ns:meta/" x:xmptk="Adobe XMP Core 5.6-c138 79.159824, 2016/09/14-01:09:01        ">
   <rdf:RDF xmlns:rdf="http://www.w3.org/1999/02/22-rdf-syntax-ns#">
      <rdf:Description rdf:about=""/>
   </rdf:RDF>
</x:xmpmeta>
                                                                                                    
                                                                                                    
                                                                                                    
                                                                                                    
                                                                                                    
                                                                                                    
                                                                                                    
                                                                                                    
                                                                                                    
                                                                                                    
                                                                                                    
                                                                                                    
                                                                                                    
                                                                                                    
                                                                                                    
                                                                                                    
                                                                                                    
                                                                                                    
                                                                                                    
                                                                                                    
                           
<?xpacket end="w"?></metadata>
<defs>
    <style>
      .cls-1 {
        fill: #475b06;
        fill-rule: evenodd;
      }
    </style>
  </defs>
  <path id="ic-satisfied-customers" class="cls-1" d="M947.527,717a4.443,4.443,0,0,1-4.015-2.553,4.4,4.4,0,0,1-.408-1.608l-0.037-.617-0.609.106a4.42,4.42,0,0,1-5.161-4.1l-0.036-.618-0.61.105a4.358,4.358,0,0,1-.742.064,4.422,4.422,0,0,1-4.242-5.7l0.144-.474-0.456-.2a4.422,4.422,0,0,1-.126-8.073l4.8-2.237L931,685.783l-0.353.149a12.594,12.594,0,0,1-4.931,1,12.716,12.716,0,1,1,11.695-7.728l-0.144.336,2.792,2.919,0.395-.492a7.8,7.8,0,0,1,6.032-2.892,7.72,7.72,0,0,1,2.648.47l6.99,2.544,0.037,0.015a9.221,9.221,0,0,0,3.491.681,9.348,9.348,0,0,0,3.921-.867l3.355-1.565a1.1,1.1,0,0,1,1.573,1c0,6.566,0,17.976,0,22.761a1.106,1.106,0,0,1-.27.724l-0.048.055a30.29,30.29,0,0,1-10.152,7.665l-8.641,4.029a4.37,4.37,0,0,1-1.861.414h0Zm1.6-9.936a1.111,1.111,0,0,1,1,.639,1.105,1.105,0,0,1-.535,1.469l-3.006,1.4a2.211,2.211,0,0,0,1.87,4.008l8.64-4.03a28.087,28.087,0,0,0,9.052-6.7l0.142-.158v-0.212c0-4.444,0-13.192,0-19.532v-0.867l-1.783.831a11.554,11.554,0,0,1-4.855,1.073,11.436,11.436,0,0,1-4.295-.831l-6.979-2.541a5.58,5.58,0,0,0-1.907-.338,5.485,5.485,0,0,0-4.584,2.463l-0.244.368,2.89,3.022,2.5-1.165a1.092,1.092,0,0,1,.466-0.1,1.11,1.11,0,0,1,1,.638,1.107,1.107,0,0,1-.535,1.47l-15.8,7.366a2.211,2.211,0,1,0,1.869,4.008l6.012-2.8a1.1,1.1,0,0,1,.466-0.1,1.106,1.106,0,0,1,.468,2.108l-6.012,2.8a2.212,2.212,0,0,0,.937,4.216,2.187,2.187,0,0,0,.933-0.208l6.011-2.8a1.1,1.1,0,0,1,.467-0.1,1.1,1.1,0,0,1,1.039,1.484,1.1,1.1,0,0,1-.571.624l-3.006,1.4a2.211,2.211,0,0,0,1.869,4.008l6.012-2.8A1.1,1.1,0,0,1,949.123,707.063Zm-13.4-25.023a12.869,12.869,0,0,1-2.264,2.246l-0.484.373,5.159,5.455,4.277-1.994-6.295-6.582Zm-10.013-18.329a10.5,10.5,0,1,0,10.5,10.5A10.515,10.515,0,0,0,925.714,663.711Zm-1.658,14.925a1.1,1.1,0,0,1-.782-0.324L919.957,675a1.106,1.106,0,0,1,1.564-1.563l2.535,2.535,5.852-5.852a1.105,1.105,0,1,1,1.563,1.563l-6.634,6.634A1.1,1.1,0,0,1,924.056,678.636Z" transform="translate(-913 -661.5)"/>
</svg>
