<svg xmlns="http://www.w3.org/2000/svg" width="60.219" height="53.125" viewBox="0 0 60.219 53.125">
  <metadata><?xpacket begin="﻿" id="W5M0MpCehiHzreSzNTczkc9d"?>
<x:xmpmeta xmlns:x="adobe:ns:meta/" x:xmptk="Adobe XMP Core 5.6-c138 79.159824, 2016/09/14-01:09:01        ">
   <rdf:RDF xmlns:rdf="http://www.w3.org/1999/02/22-rdf-syntax-ns#">
      <rdf:Description rdf:about=""/>
   </rdf:RDF>
</x:xmpmeta>
                                                                                                    
                                                                                                    
                                                                                                    
                                                                                                    
                                                                                                    
                                                                                                    
                                                                                                    
                                                                                                    
                                                                                                    
                                                                                                    
                                                                                                    
                                                                                                    
                                                                                                    
                                                                                                    
                                                                                                    
                                                                                                    
                                                                                                    
                                                                                                    
                                                                                                    
                                                                                                    
                           
<?xpacket end="w"?></metadata>
<defs>
    <style>
      .cls-1 {
        fill: #475b06;
        fill-rule: evenodd;
      }
    </style>
  </defs>
  <path id="ic-supporters" class="cls-1" d="M666.306,678.216l-4.021-9.787a12.539,12.539,0,0,0-8.278-7.372l-0.009,0-8.92-2.463a2.676,2.676,0,0,0-3.071,1.324,6.35,6.35,0,0,1-1.137,1.546,0.884,0.884,0,0,0,1.249,1.25,8.13,8.13,0,0,0,1.451-1.976,0.9,0.9,0,0,1,1.038-.441l1.376,0.38a10.182,10.182,0,0,1-9.368,6.159h-0.452a10.18,10.18,0,0,1-9.368-6.159l1.375-.379a0.9,0.9,0,0,1,1.034.433,8.11,8.11,0,0,0,8.707,4.216,0.884,0.884,0,0,0-.33-1.737,6.345,6.345,0,0,1-6.812-3.3,2.671,2.671,0,0,0-3.068-1.318l-8.921,2.463-0.007,0a12.5,12.5,0,0,0-4.309,2.161,0.883,0.883,0,1,0,1.078,1.4,10.761,10.761,0,0,1,3.71-1.859l0.006,0,5.823-1.607a11.94,11.94,0,0,0,11.082,7.452h0.452a11.941,11.941,0,0,0,11.082-7.452l5.821,1.607,0.008,0a10.782,10.782,0,0,1,7.125,6.343l4.021,9.786a1.053,1.053,0,0,1-.645,1.4l-9.382,3.08v-12.24a0.883,0.883,0,1,0-1.766,0V706.17H631.345a0.884,0.884,0,0,0,0,1.767H652.88v0.771a1.141,1.141,0,0,1-1.139,1.141h-30.7a1.142,1.142,0,0,1-1.141-1.141v-0.771h7.22a0.884,0.884,0,0,0,0-1.767H619.9V671.127a0.883,0.883,0,1,0-1.765,0v0.912l-6.378-2.033,0.372-.9a11.05,11.05,0,0,1,.717-1.436,0.883,0.883,0,1,0-1.517-.9,12.825,12.825,0,0,0-.832,1.667l-4.021,9.788a2.82,2.82,0,0,0,1.728,3.751l9.931,3.259v23.482a2.911,2.911,0,0,0,2.906,2.909h30.7a2.91,2.91,0,0,0,2.9-2.909V685.227l9.932-3.26a2.82,2.82,0,0,0,1.728-3.751h0Zm-48.173-4.322v4.771l-8.689-3.031,1.638-3.988Zm-9.381,6.394a1.052,1.052,0,0,1-.645-1.4l0.665-1.617,9.361,3.266v2.829Zm27.638,6.335a2.188,2.188,0,0,0,1.554-.643l5.208-5.214a4.443,4.443,0,0,0,0-6.273h0a4.426,4.426,0,0,0-6.265,0l-0.5.5-0.5-.5a4.433,4.433,0,0,0-6.265,6.273l5.207,5.214a2.192,2.192,0,0,0,1.555.643h0Zm-5.514-10.88a2.662,2.662,0,0,1,3.769,0l1.121,1.122a0.882,0.882,0,0,0,1.248,0l1.121-1.122a2.662,2.662,0,0,1,3.769,0,2.674,2.674,0,0,1,0,3.774L636.7,684.73a0.432,0.432,0,0,1-.612,0l-5.208-5.213a2.674,2.674,0,0,1,0-3.774h0Z" transform="translate(-606.281 -658.5)"/>
</svg>
