<svg xmlns="http://www.w3.org/2000/svg" width="22.906" height="23.031" viewBox="0 0 22.906 23.031">
  <metadata><?xpacket begin="﻿" id="W5M0MpCehiHzreSzNTczkc9d"?>
<x:xmpmeta xmlns:x="adobe:ns:meta/" x:xmptk="Adobe XMP Core 5.6-c138 79.159824, 2016/09/14-01:09:01        ">
   <rdf:RDF xmlns:rdf="http://www.w3.org/1999/02/22-rdf-syntax-ns#">
      <rdf:Description rdf:about=""/>
   </rdf:RDF>
</x:xmpmeta>
                                                                                                    
                                                                                                    
                                                                                                    
                                                                                                    
                                                                                                    
                                                                                                    
                                                                                                    
                                                                                                    
                                                                                                    
                                                                                                    
                                                                                                    
                                                                                                    
                                                                                                    
                                                                                                    
                                                                                                    
                                                                                                    
                                                                                                    
                                                                                                    
                                                                                                    
                                                                                                    
                           
<?xpacket end="w"?></metadata>
<defs>
    <style>
      .cls-1 {
        fill-rule: evenodd;
      }
    </style>
  </defs>
  <path id="ic-search" class="cls-1" d="M706.989,509.7a9.877,9.877,0,1,1,9.994-9.875,9.945,9.945,0,0,1-9.994,9.875h0Zm0-17.771a7.9,7.9,0,1,0,7.987,7.9,7.955,7.955,0,0,0-7.987-7.9h0Zm-5.619,7.893h-1a6.593,6.593,0,0,1,6.622-6.545v0.99a5.594,5.594,0,0,0-5.619,5.555h0ZM718.9,512.962a1,1,0,0,1-.709-0.291l-5.58-5.516a0.982,0.982,0,0,1,0-1.4,1.01,1.01,0,0,1,1.417,0l5.581,5.516a0.983,0.983,0,0,1,0,1.4,1.006,1.006,0,0,1-.709.291h0Z" transform="translate(-697 -489.938)"/>
</svg>
