<svg xmlns="http://www.w3.org/2000/svg" width="44.5" height="44.5" viewBox="0 0 44.5 44.5">
  <metadata><?xpacket begin="﻿" id="W5M0MpCehiHzreSzNTczkc9d"?>
<x:xmpmeta xmlns:x="adobe:ns:meta/" x:xmptk="Adobe XMP Core 5.6-c138 79.159824, 2016/09/14-01:09:01        ">
   <rdf:RDF xmlns:rdf="http://www.w3.org/1999/02/22-rdf-syntax-ns#">
      <rdf:Description rdf:about=""/>
   </rdf:RDF>
</x:xmpmeta>
                                                                                                    
                                                                                                    
                                                                                                    
                                                                                                    
                                                                                                    
                                                                                                    
                                                                                                    
                                                                                                    
                                                                                                    
                                                                                                    
                                                                                                    
                                                                                                    
                                                                                                    
                                                                                                    
                                                                                                    
                                                                                                    
                                                                                                    
                                                                                                    
                                                                                                    
                                                                                                    
                           
<?xpacket end="w"?></metadata>
<defs>
    <style>
      .cls-1 {
        fill: #475b06;
        fill-rule: evenodd;
      }
    </style>
  </defs>
  <path id="ic-share-fundraiser" class="cls-1" d="M275.009,1213.24a2.966,2.966,0,0,0,2.955,2.76,1.477,1.477,0,0,0,.21-0.01,2.967,2.967,0,1,0-3.165-2.75h0Zm1.841-1.18a1.482,1.482,0,0,1,1.016-.51h0.105a1.485,1.485,0,1,1-1.485,1.48,1.469,1.469,0,0,1,.364-0.97h0Zm4.824-3.47a0.74,0.74,0,1,1-.741.74A0.74,0.74,0,0,1,281.674,1208.59Zm2.1-2.1a0.74,0.74,0,1,1-.742.74A0.74,0.74,0,0,1,283.772,1206.49Zm1.573-1.88a0.742,0.742,0,1,0,1.049,0h0A0.741,0.741,0,0,0,285.345,1204.61Zm2.1-2.1a0.742,0.742,0,1,0,1.048,0,0.742,0.742,0,0,0-1.048,0h0Zm31.885-30.74a0.735,0.735,0,0,0-.809-0.23l-37.081,12.61a0.74,0.74,0,0,0-.464.94,0.731,0.731,0,0,0,.181.29l5.576,5.52,3.877,12.71a0.747,0.747,0,0,0,1.3.23c0-.01.007-0.01,0.01-0.02l3.255-4.55,5.261,5.21a0.77,0.77,0,0,0,.522.21,0.36,0.36,0,0,0,.1-0.01,0.712,0.712,0,0,0,.543-0.37l17.8-31.7A0.746,0.746,0,0,0,319.328,1171.77Zm-7.35,3.56L287.5,1189.58l-4.454-4.41Zm0.195,1.6-20.544,17.7a0.733,0.733,0,0,0-.255.49l-0.435,4.49-2.673-8.76Zm-19.85,23.78,0.377-3.9,1.408,1.4Zm8.466,2.03-7.584-7.51,22.843-19.67Z" transform="translate(-275 -1171.5)"/>
</svg>
