<svg xmlns="http://www.w3.org/2000/svg" width="51.938" height="23.62" viewBox="0 0 51.938 23.62">
  <metadata><?xpacket begin="﻿" id="W5M0MpCehiHzreSzNTczkc9d"?>
<x:xmpmeta xmlns:x="adobe:ns:meta/" x:xmptk="Adobe XMP Core 5.6-c138 79.159824, 2016/09/14-01:09:01        ">
   <rdf:RDF xmlns:rdf="http://www.w3.org/1999/02/22-rdf-syntax-ns#">
      <rdf:Description rdf:about=""/>
   </rdf:RDF>
</x:xmpmeta>
                                                                                                    
                                                                                                    
                                                                                                    
                                                                                                    
                                                                                                    
                                                                                                    
                                                                                                    
                                                                                                    
                                                                                                    
                                                                                                    
                                                                                                    
                                                                                                    
                                                                                                    
                                                                                                    
                                                                                                    
                                                                                                    
                                                                                                    
                                                                                                    
                                                                                                    
                                                                                                    
                           
<?xpacket end="w"?></metadata>
<defs>
    <style>
      .cls-1 {
        fill: #475b06;
        fill-rule: evenodd;
      }
    </style>
  </defs>
  <path id="ic-start-fundraiser" class="cls-1" d="M310.146,1032.69a0.76,0.76,0,1,0,0,1.52,10.29,10.29,0,1,1,0,20.58H281.854a10.29,10.29,0,1,1,0-20.58H306.6a0.76,0.76,0,1,0,0-1.52H281.854a11.81,11.81,0,1,0,0,23.62h28.292A11.81,11.81,0,1,0,310.146,1032.69ZM285.4,1053.27h24.743a8.77,8.77,0,1,0,0-17.54H281.854a8.77,8.77,0,1,0,0,17.54,0.76,0.76,0,1,0,0-1.52,7.25,7.25,0,0,1,0-14.5h28.292a7.25,7.25,0,0,1,0,14.5H285.4A0.76,0.76,0,0,0,285.4,1053.27Zm8.288-5.05,0.459-1.2h3.117l0.454,1.2a0.761,0.761,0,0,0,1.423-.54l-2.57-6.8a0.92,0.92,0,0,0-1.711-.01l-2.594,6.81a0.761,0.761,0,0,0,1.422.54h0Zm2.025-5.31,0.977,2.59h-1.964Zm-12.973,4.28a2.522,2.522,0,0,1-1.843-.77,0.76,0.76,0,0,0-1.127,1.02,4.037,4.037,0,0,0,2.97,1.27,2.743,2.743,0,0,0,2.805-2.12c0.165-.92-0.259-2.13-1.942-2.75-0.865-.32-1.669-0.67-1.9-0.77a0.576,0.576,0,0,1-.218-0.55,0.8,0.8,0,0,1,.622-0.64,2.4,2.4,0,0,1,2,.46,0.757,0.757,0,0,0,1.068-.09,0.77,0.77,0,0,0-.093-1.08,3.908,3.908,0,0,0-3.409-.74,2.313,2.313,0,0,0-1.688,1.87,2.107,2.107,0,0,0,.933,2.08,0.445,0.445,0,0,0,.106.05c0.04,0.02.988,0.44,2.056,0.84a1.19,1.19,0,0,1,.971,1.05,1.265,1.265,0,0,1-1.308.87h0Zm6.622,1.52a0.761,0.761,0,0,0,.761-0.76v-6.14h1.154a0.76,0.76,0,1,0,0-1.52h-3.814a0.76,0.76,0,1,0,0,1.52h1.139v6.14A0.76,0.76,0,0,0,289.365,1048.71Zm16.689-5.87a2.606,2.606,0,0,0-2.657-2.55h-1.838a0.76,0.76,0,0,0-.76.76v6.9a0.761,0.761,0,0,0,1.521,0v-2.22l2.4,2.73a0.762,0.762,0,0,0,1.142-1.01L304,1045.33a2.582,2.582,0,0,0,2.056-2.49h0Zm-2.657,1.04H302.32v-2.07H303.4A1.039,1.039,0,1,1,303.4,1043.88Zm6.352,4.83a0.76,0.76,0,0,0,.76-0.76v-6.14h1.155a0.76,0.76,0,1,0,0-1.52h-3.815a0.76,0.76,0,1,0,0,1.52h1.139v6.14A0.761,0.761,0,0,0,309.749,1048.71Z" transform="translate(-270.031 -1032.69)"/>
</svg>
