<svg xmlns="http://www.w3.org/2000/svg" width="46.125" height="52.38" viewBox="0 0 46.125 52.38">
  <metadata><?xpacket begin="﻿" id="W5M0MpCehiHzreSzNTczkc9d"?>
<x:xmpmeta xmlns:x="adobe:ns:meta/" x:xmptk="Adobe XMP Core 5.6-c138 79.159824, 2016/09/14-01:09:01        ">
   <rdf:RDF xmlns:rdf="http://www.w3.org/1999/02/22-rdf-syntax-ns#">
      <rdf:Description rdf:about=""/>
   </rdf:RDF>
</x:xmpmeta>
                                                                                                    
                                                                                                    
                                                                                                    
                                                                                                    
                                                                                                    
                                                                                                    
                                                                                                    
                                                                                                    
                                                                                                    
                                                                                                    
                                                                                                    
                                                                                                    
                                                                                                    
                                                                                                    
                                                                                                    
                                                                                                    
                                                                                                    
                                                                                                    
                                                                                                    
                                                                                                    
                           
<?xpacket end="w"?></metadata>
<defs>
    <style>
      .cls-1 {
        fill: #475b06;
        fill-rule: evenodd;
      }
    </style>
  </defs>
  <path id="ic-withdraw" class="cls-1" d="M296.153,1339.9a0.728,0.728,0,0,0-.294-0.01,1.961,1.961,0,0,1-1.727-1.94,0.859,0.859,0,1,0-1.717,0,3.681,3.681,0,0,0,2.7,3.54v0.86a0.859,0.859,0,1,0,1.718,0v-0.81a3.669,3.669,0,0,0-.752-7.26,1.95,1.95,0,1,1,1.95-1.95,0.859,0.859,0,1,0,1.717,0,3.671,3.671,0,0,0-2.915-3.59v-0.78a0.859,0.859,0,1,0-1.718,0v0.83a3.67,3.67,0,0,0,.966,7.21A1.951,1.951,0,0,1,296.153,1339.9Zm-12.523-4.69a12.453,12.453,0,1,0,12.452-12.46A12.448,12.448,0,0,0,283.63,1335.21Zm12.452-10.74a10.74,10.74,0,1,1-10.735,10.74A10.732,10.732,0,0,1,296.082,1324.47Zm16.686,25.31-6.727,3.18a5.461,5.461,0,0,0-4.671-2.88l-6.21-.17a6.608,6.608,0,0,1-2.822-.73l-0.632-.33a11.145,11.145,0,0,0-10.324.01l0.04-1.43a0.858,0.858,0,0,0-.835-0.88l-6.81-.19a0.859,0.859,0,0,0-.881.83l-0.412,14.96a0.864,0.864,0,0,0,.835.88l6.809,0.19h0.024a0.867,0.867,0,0,0,.859-0.84l0.019-.72,1.77-.94a2.979,2.979,0,0,1,2.264-.25l10.564,2.97a0.111,0.111,0,0,1,.056.01,11.319,11.319,0,0,0,2.322.24,11.466,11.466,0,0,0,4.786-1.05,0.265,0.265,0,0,0,.106-0.06l15.317-9.91a0.853,0.853,0,0,0,.281-1.14A4.338,4.338,0,0,0,312.768,1349.78Zm-38.543,11.55,0.364-13.23,5.092,0.14-0.364,13.23Zm27.793-.22a9.746,9.746,0,0,1-5.954.66l-10.535-2.95a4.739,4.739,0,0,0-3.54.38l-0.9.49,0.242-8.8a9.427,9.427,0,0,1,9.589-.51l0.632,0.32a8.368,8.368,0,0,0,3.565.93l6.21,0.17a3.764,3.764,0,0,1,3.58,3l-9.25-.26a0.86,0.86,0,0,0-.048,1.72l10.209,0.28h0.024a0.858,0.858,0,0,0,.858-0.83,5.58,5.58,0,0,0-.083-1.12l6.9-3.26c0.007,0,.014-0.01.02-0.01a2.625,2.625,0,0,1,2.967.42Zm-5.077-40.78v-8.16a0.859,0.859,0,1,0-1.718,0v8.16A0.859,0.859,0,1,0,296.941,1320.33Zm6.44,0v-3.86a0.859,0.859,0,1,0-1.717,0v3.86A0.859,0.859,0,1,0,303.381,1320.33Zm-12.881,0v-3.86a0.859,0.859,0,1,0-1.717,0v3.86A0.859,0.859,0,1,0,290.5,1320.33Z" transform="translate(-272.469 -1311.31)"/>
</svg>
