<svg xmlns="http://www.w3.org/2000/svg" width="75.063" height="602.969" viewBox="0 0 75.063 602.969">
  <metadata><?xpacket begin="﻿" id="W5M0MpCehiHzreSzNTczkc9d"?>
<x:xmpmeta xmlns:x="adobe:ns:meta/" x:xmptk="Adobe XMP Core 5.6-c138 79.159824, 2016/09/14-01:09:01        ">
   <rdf:RDF xmlns:rdf="http://www.w3.org/1999/02/22-rdf-syntax-ns#">
      <rdf:Description rdf:about=""/>
   </rdf:RDF>
</x:xmpmeta>
                                                                                                    
                                                                                                    
                                                                                                    
                                                                                                    
                                                                                                    
                                                                                                    
                                                                                                    
                                                                                                    
                                                                                                    
                                                                                                    
                                                                                                    
                                                                                                    
                                                                                                    
                                                                                                    
                                                                                                    
                                                                                                    
                                                                                                    
                                                                                                    
                                                                                                    
                                                                                                    
                           
<?xpacket end="w"?></metadata>
<defs>
    <style>
      .cls-1 {
        fill: #fff;
        fill-rule: evenodd;
        opacity: 0.2;
      }
    </style>
  </defs>
  <path id="zigzag-texture" class="cls-1" d="M51.893,403.743l-2.082-2.11L47.7,399.548l-6.272-6.279-2.082-2.11-2.108-2.085-2.082-2.084a3.088,3.088,0,0,1-1.041-2.11,3,3,0,0,1,1.041-2.084l2.082-2.111,2.108-2.084,2.082-2.084,2.082-2.111,2.108-2.085,2.082-2.11,2.108-2.084,2.082-2.084,2.082-2.111,2.108-2.084a2.633,2.633,0,0,0,0-4.195l-2.108-2.084-2.082-2.111-6.272-6.279L43.512,345.1l-2.082-2.111-6.272-6.279a2.633,2.633,0,0,1,0-4.194l20.925-20.948a3,3,0,0,0,1.041-2.084,3.089,3.089,0,0,0-1.041-2.111l-2.108-2.084L51.893,303.2l-2.082-2.111L47.7,299.005l-2.082-2.111-2.108-2.084-2.082-2.084-2.082-2.111-2.108-2.084-2.082-2.111a2.607,2.607,0,0,1,0-4.168l2.082-2.111,2.108-2.084,2.082-2.11,2.082-2.085,2.108-2.084,2.082-2.11,2.108-2.085,2.082-2.11,2.082-2.084,2.108-2.085a3.087,3.087,0,0,0,1.041-2.11,3,3,0,0,0-1.041-2.085L53.975,255H41.43l2.082,2.11a2.957,2.957,0,0,1,1.067,2.085,3.044,3.044,0,0,1-1.067,2.11L22.587,282.252a2.607,2.607,0,0,0,0,4.168l20.925,20.948a3.046,3.046,0,0,1,1.067,2.111,2.955,2.955,0,0,1-1.067,2.084l-2.082,2.111-2.082,2.084-2.108,2.084-2.082,2.111-2.108,2.084-2.082,2.11-2.082,2.084-2.108,2.085-2.082,2.11-2.108,2.085a2.633,2.633,0,0,0,0,4.194L24.7,338.79l2.082,2.11,2.108,2.084,2.082,2.111,2.082,2.084,2.108,2.084,2.082,2.111,2.108,2.084,2.082,2.111,2.082,2.084a2.595,2.595,0,0,1,0,4.195l-2.082,2.084-2.082,2.111-2.108,2.084-6.272,6.279-2.082,2.111L26.778,378.6,22.587,382.8a3.017,3.017,0,0,0-1.041,2.084,3.111,3.111,0,0,0,1.041,2.11l2.108,2.084,6.272,6.279,2.082,2.111,2.108,2.084,6.272,6.279H53.975Zm-16.274,2.084-2.108-2.084-2.082-2.11-2.108-2.085-2.082-2.084-2.082-2.111-2.108-2.084-2.082-2.11-2.108-2.085-2.082-2.084a3.089,3.089,0,0,1-1.041-2.11,3,3,0,0,1,1.041-2.084l2.082-2.111,2.108-2.084,6.272-6.28,2.082-2.11,2.108-2.084,6.272-6.279a2.634,2.634,0,0,0,0-4.195L16.775,336.705a2.633,2.633,0,0,1,0-4.194l6.272-6.28,2.108-2.084,2.082-2.11,6.272-6.279,2.108-2.084,2.082-2.111a3,3,0,0,0,1.041-2.084,3.09,3.09,0,0,0-1.041-2.111l-2.082-2.084L33.51,303.2l-2.082-2.111-2.108-2.084-2.082-2.111-2.082-2.084-2.108-2.084-2.082-2.111-2.108-2.084-2.082-2.111a2.607,2.607,0,0,1,0-4.168l2.082-2.111,2.108-2.084,2.082-2.11,2.108-2.085,2.082-2.084,2.082-2.11,2.108-2.085,2.082-2.11,2.108-2.084L37.7,261.3a3.088,3.088,0,0,0,1.041-2.11,3,3,0,0,0-1.041-2.085L35.619,255H23.048l2.108,2.11a3.02,3.02,0,0,1,1.041,2.085,3.11,3.11,0,0,1-1.041,2.11l-2.108,2.085-6.272,6.279-2.082,2.11-2.108,2.084-6.272,6.279-2.082,2.111a2.568,2.568,0,0,0,0,4.168l2.082,2.111,6.272,6.279,2.108,2.084,2.082,2.111,6.272,6.279,2.108,2.084a3.112,3.112,0,0,1,1.041,2.111,3.018,3.018,0,0,1-1.041,2.084l-4.19,4.195-2.108,2.084-2.082,2.111L10.5,326.231,8.4,328.316l-2.082,2.11-2.082,2.085a2.594,2.594,0,0,0,0,4.194l2.082,2.085L8.4,340.9l2.108,2.084,2.082,2.111,2.108,2.084,2.082,2.084,2.082,2.111,2.108,2.084,2.082,2.111,2.108,2.084a2.634,2.634,0,0,1,0,4.195l-2.108,2.084-2.082,2.111-2.108,2.084-2.082,2.084-2.082,2.11-2.108,2.085L10.5,376.517,8.4,378.6l-2.082,2.084L4.231,382.8a2.953,2.953,0,0,0-1.067,2.084,3.043,3.043,0,0,0,1.067,2.11l18.817,18.837H35.619ZM-1,259.194A3.088,3.088,0,0,0,.041,261.3l2.082,2.085a3.007,3.007,0,0,0,2.108,1.042,3,3,0,0,0,2.082-1.042L8.4,261.3a3.044,3.044,0,0,0,1.067-2.11A2.957,2.957,0,0,0,8.4,257.109L6.313,255H2.123l-2.082,2.11A3,3,0,0,0-1,259.194Zm1.041,48.174A3.09,3.09,0,0,0-1,309.479a3,3,0,0,0,1.041,2.084l2.082,2.111a3.031,3.031,0,0,0,2.108,1.042,3.027,3.027,0,0,0,2.082-1.042L8.4,311.563a2.955,2.955,0,0,0,1.067-2.084A3.046,3.046,0,0,0,8.4,307.368l-2.082-2.084a3,3,0,0,0-2.082-1.042,3.007,3.007,0,0,0-2.108,1.042Zm0,50.285a2.634,2.634,0,0,0,0,4.195l2.082,2.084a3.007,3.007,0,0,0,2.108,1.042,3,3,0,0,0,2.082-1.042L8.4,361.848a2.6,2.6,0,0,0,0-4.195l-2.082-2.084A2.957,2.957,0,0,0,4.231,354.5a2.961,2.961,0,0,0-2.108,1.068Zm6.272,48.174a3,3,0,0,0-2.082-1.041,3.005,3.005,0,0,0-2.108,1.041h4.19Zm63.534-2.084-2.082-2.11-2.108-2.085-6.272-6.279-2.082-2.11-2.108-2.085-2.082-2.084a3.088,3.088,0,0,1-1.041-2.11,3,3,0,0,1,1.041-2.084l2.082-2.111L57.3,378.6l2.082-2.084,2.082-2.111,2.108-2.085,2.082-2.11,2.108-2.084,2.082-2.084,2.082-2.111,2.108-2.084a2.633,2.633,0,0,0,0-4.195l-2.108-2.084-2.082-2.111-6.272-6.279L61.466,345.1l-2.082-2.111-6.272-6.279a2.633,2.633,0,0,1,0-4.194l20.925-20.948a3,3,0,0,0,1.041-2.084,3.09,3.09,0,0,0-1.041-2.111l-2.108-2.084L69.847,303.2l-2.082-2.111-2.108-2.084-2.082-2.111-2.108-2.084-2.082-2.084L57.3,290.615l-2.108-2.084-2.082-2.111a2.607,2.607,0,0,1,0-4.168l2.082-2.111,2.108-2.084,2.082-2.11,2.082-2.085,2.108-2.084,2.082-2.11,2.108-2.085,2.082-2.11,2.082-2.084,2.108-2.085a3.088,3.088,0,0,0,1.041-2.11,3,3,0,0,0-1.041-2.085L71.929,255H59.384l2.082,2.11a2.957,2.957,0,0,1,1.067,2.085,3.044,3.044,0,0,1-1.067,2.11L40.541,282.252a2.607,2.607,0,0,0,0,4.168l20.925,20.948a3.046,3.046,0,0,1,1.067,2.111,2.955,2.955,0,0,1-1.067,2.084l-2.082,2.111L57.3,315.758l-2.108,2.084-2.082,2.111L51,322.037l-2.082,2.11-2.082,2.084-2.108,2.085-2.082,2.11-2.108,2.085a2.633,2.633,0,0,0,0,4.194l2.108,2.085,2.082,2.11,2.108,2.084,2.082,2.111L51,347.179l2.108,2.084,2.082,2.111,2.108,2.084,2.082,2.111,2.082,2.084a2.595,2.595,0,0,1,0,4.195l-2.082,2.084L57.3,366.043l-2.108,2.084-6.272,6.279-2.082,2.111L44.732,378.6l-4.19,4.195A3.017,3.017,0,0,0,39.5,384.88a3.111,3.111,0,0,0,1.041,2.11l2.108,2.084,6.272,6.279L51,397.464l2.108,2.084,6.272,6.279H71.929ZM51.893,554.32l-2.082-2.11L47.7,550.125l-6.272-6.279-2.082-2.11-2.108-2.085-2.082-2.084a3.088,3.088,0,0,1-1.041-2.11,3,3,0,0,1,1.041-2.085l2.082-2.11,2.108-2.085,2.082-2.083,2.082-2.111,2.108-2.084,2.082-2.11,2.108-2.085,2.082-2.084,2.082-2.11,2.108-2.085a2.633,2.633,0,0,0,0-4.195l-2.108-2.084-2.082-2.111-6.272-6.279-2.108-2.084-2.082-2.111-6.272-6.279a2.634,2.634,0,0,1,0-4.195L56.083,462.14a3,3,0,0,0,1.041-2.085,3.091,3.091,0,0,0-1.041-2.11l-2.108-2.084-2.082-2.084-2.082-2.111L47.7,449.582l-2.082-2.111-2.108-2.083L41.43,443.3l-2.082-2.11-2.108-2.085L35.158,437a2.607,2.607,0,0,1,0-4.168l2.082-2.11,2.108-2.085,2.082-2.11,2.082-2.084,2.108-2.085,2.082-2.11,2.108-2.085,2.082-2.11,2.082-2.084,2.108-2.085a3.085,3.085,0,0,0,1.041-2.11,3,3,0,0,0-1.041-2.085l-2.108-2.11H41.43l2.082,2.11a2.959,2.959,0,0,1,1.067,2.085,3.042,3.042,0,0,1-1.067,2.11L22.587,432.829a2.607,2.607,0,0,0,0,4.168l20.925,20.948a3.048,3.048,0,0,1,1.067,2.11,2.957,2.957,0,0,1-1.067,2.085l-2.082,2.111-2.082,2.084-2.108,2.084-2.082,2.111-2.108,2.083-2.082,2.111-2.082,2.084-2.108,2.085L24.7,481l-2.108,2.083a2.634,2.634,0,0,0,0,4.195l2.108,2.085,2.082,2.11,2.108,2.084,2.082,2.111,2.082,2.084,2.108,2.085,2.082,2.11,2.108,2.084,2.082,2.111,2.082,2.084a2.595,2.595,0,0,1,0,4.195L41.43,514.51l-2.082,2.11L37.24,518.7l-6.272,6.279-2.082,2.111-2.108,2.083-4.191,4.195a3.022,3.022,0,0,0-1.041,2.085,3.111,3.111,0,0,0,1.041,2.11l2.108,2.084,6.272,6.28,2.082,2.11,2.108,2.084L41.43,556.4H53.975ZM35.619,556.4L33.51,554.32l-2.082-2.11-2.108-2.085-2.082-2.084-2.082-2.11-2.108-2.085-2.082-2.11-2.108-2.085-2.082-2.084a3.089,3.089,0,0,1-1.041-2.11,3,3,0,0,1,1.041-2.085l2.082-2.11,2.108-2.085,6.272-6.278,2.082-2.11,2.108-2.085,6.272-6.279a2.634,2.634,0,0,0,0-4.195L16.775,487.282a2.634,2.634,0,0,1,0-4.195l6.272-6.279,2.108-2.084,2.082-2.111,6.272-6.278,2.108-2.084L37.7,462.14a3,3,0,0,0,1.041-2.085,3.091,3.091,0,0,0-1.041-2.11l-2.082-2.084-2.108-2.084-2.082-2.111-2.108-2.084-2.082-2.111-2.082-2.083L23.048,443.3l-2.082-2.11-2.108-2.085L16.775,437a2.607,2.607,0,0,1,0-4.168l2.082-2.11,2.108-2.085,2.082-2.11,2.108-2.084,2.082-2.085,2.082-2.11,2.108-2.085,2.082-2.11,2.108-2.084,2.082-2.085a3.086,3.086,0,0,0,1.041-2.11,3,3,0,0,0-1.041-2.085l-2.082-2.11H23.048l2.108,2.11a3.021,3.021,0,0,1,1.041,2.085,3.108,3.108,0,0,1-1.041,2.11l-2.108,2.085-6.272,6.279-2.082,2.11-2.108,2.085-6.272,6.279-2.082,2.11a2.568,2.568,0,0,0,0,4.168l2.082,2.111,6.272,6.28,2.108,2.083,2.082,2.111,6.272,6.279,2.108,2.084a3.114,3.114,0,0,1,1.041,2.11,3.02,3.02,0,0,1-1.041,2.085l-4.19,4.195-2.108,2.084-2.082,2.111L10.5,476.808,8.4,478.893,6.313,481l-2.082,2.083a2.595,2.595,0,0,0,0,4.195l2.082,2.085,2.082,2.11,2.108,2.084,2.082,2.111,2.108,2.084,2.082,2.085,2.082,2.11,2.108,2.084,2.082,2.111,2.108,2.084a2.634,2.634,0,0,1,0,4.195l-2.108,2.085-2.082,2.11L18.858,518.7l-2.082,2.085-2.082,2.11-2.108,2.084L10.5,527.094,8.4,529.177l-2.082,2.085-2.082,2.11a2.959,2.959,0,0,0-1.067,2.085,3.043,3.043,0,0,0,1.067,2.11L23.048,556.4H35.619ZM-1,409.771a3.086,3.086,0,0,0,1.041,2.11l2.082,2.085a3.007,3.007,0,0,0,2.108,1.042,3,3,0,0,0,2.082-1.042L8.4,411.881a3.042,3.042,0,0,0,1.067-2.11A2.959,2.959,0,0,0,8.4,407.686l-2.082-2.11H2.123l-2.082,2.11A3,3,0,0,0-1,409.771Zm1.041,48.174A3.092,3.092,0,0,0-1,460.055,3,3,0,0,0,.041,462.14l2.082,2.111a3.027,3.027,0,0,0,2.108,1.042,3.022,3.022,0,0,0,2.082-1.042L8.4,462.14a2.957,2.957,0,0,0,1.067-2.085,3.047,3.047,0,0,0-1.067-2.11l-2.082-2.084a3,3,0,0,0-2.082-1.042,3,3,0,0,0-2.108,1.042Zm0,50.285a2.634,2.634,0,0,0,0,4.195l2.082,2.085a3.005,3.005,0,0,0,2.108,1.041,3,3,0,0,0,2.082-1.041L8.4,512.425a2.6,2.6,0,0,0,0-4.195l-2.082-2.084a2.957,2.957,0,0,0-2.082-1.068,2.961,2.961,0,0,0-2.108,1.068ZM6.313,556.4a3,3,0,0,0-2.082-1.042A3.007,3.007,0,0,0,2.123,556.4h4.19Zm63.534-2.084-2.082-2.11-2.108-2.085-6.272-6.279-2.082-2.11-2.108-2.085-2.082-2.084a3.088,3.088,0,0,1-1.041-2.11,3,3,0,0,1,1.041-2.085l2.082-2.11,2.108-2.085,2.082-2.083,2.082-2.111,2.108-2.084,2.082-2.11,2.108-2.085,2.082-2.084,2.082-2.11,2.108-2.085a2.633,2.633,0,0,0,0-4.195l-2.108-2.084-2.082-2.111-6.272-6.279-2.108-2.084-2.082-2.111-6.272-6.279a2.634,2.634,0,0,1,0-4.195L74.037,462.14a3,3,0,0,0,1.041-2.085,3.091,3.091,0,0,0-1.041-2.11l-2.108-2.084-2.082-2.084-2.082-2.111-2.108-2.084-2.082-2.111-2.108-2.083L59.384,443.3l-2.082-2.11-2.108-2.085L53.112,437a2.607,2.607,0,0,1,0-4.168l2.082-2.11,2.108-2.085,2.082-2.11,2.082-2.084,2.108-2.085,2.082-2.11,2.108-2.085,2.082-2.11,2.082-2.084,2.108-2.085a3.086,3.086,0,0,0,1.041-2.11,3,3,0,0,0-1.041-2.085l-2.108-2.11H59.384l2.082,2.11a2.959,2.959,0,0,1,1.067,2.085,3.042,3.042,0,0,1-1.067,2.11L40.541,432.829a2.607,2.607,0,0,0,0,4.168l20.925,20.948a3.048,3.048,0,0,1,1.067,2.11,2.957,2.957,0,0,1-1.067,2.085l-2.082,2.111L57.3,466.335l-2.108,2.084-2.082,2.111L51,472.613l-2.082,2.111-2.082,2.084-2.108,2.085L42.649,481l-2.108,2.083a2.634,2.634,0,0,0,0,4.195l2.108,2.085,2.082,2.11,2.108,2.084,2.082,2.111L51,497.756l2.108,2.085,2.082,2.11,2.108,2.084,2.082,2.111,2.082,2.084a2.595,2.595,0,0,1,0,4.195l-2.082,2.085L57.3,516.62,55.194,518.7l-6.272,6.279-2.082,2.111-2.108,2.083-4.19,4.195a3.022,3.022,0,0,0-1.041,2.085,3.111,3.111,0,0,0,1.041,2.11l2.108,2.084,6.272,6.28L51,548.041l2.108,2.084,6.272,6.279H71.929ZM51.893,704.9l-2.082-2.11L47.7,700.7l-6.272-6.28-2.082-2.11-2.108-2.084-2.082-2.085a3.088,3.088,0,0,1-1.041-2.11,3,3,0,0,1,1.041-2.084l2.082-2.111,2.108-2.084,2.082-2.085,2.082-2.11,2.108-2.084,2.082-2.111,2.108-2.084,2.082-2.085,2.082-2.11L56.083,663a2.633,2.633,0,0,0,0-4.195l-2.108-2.084-2.082-2.111-6.272-6.279-2.108-2.084-2.082-2.111-6.272-6.278a2.634,2.634,0,0,1,0-4.2l20.925-20.948a2.994,2.994,0,0,0,1.041-2.084,3.089,3.089,0,0,0-1.041-2.111l-2.108-2.084-2.082-2.084-2.082-2.111L47.7,600.159l-2.082-2.111-2.108-2.084L41.43,593.88l-2.082-2.111-2.108-2.084-2.082-2.11a2.608,2.608,0,0,1,0-4.169l2.082-2.111,2.108-2.084,2.082-2.11,2.082-2.084,2.108-2.085,2.082-2.11,2.108-2.084,2.082-2.111,2.082-2.084,2.108-2.085a3.085,3.085,0,0,0,1.041-2.11,2.994,2.994,0,0,0-1.041-2.084l-2.108-2.111H41.43l2.082,2.111a2.954,2.954,0,0,1,1.067,2.084,3.042,3.042,0,0,1-1.067,2.11L22.587,583.406a2.608,2.608,0,0,0,0,4.169l20.925,20.947a3.046,3.046,0,0,1,1.067,2.111,2.954,2.954,0,0,1-1.067,2.084l-2.082,2.111-2.082,2.084L37.24,619l-2.082,2.111-2.108,2.084L30.968,625.3l-2.082,2.084-2.108,2.084L24.7,631.58l-2.108,2.085a2.634,2.634,0,0,0,0,4.2l2.108,2.084,2.082,2.11,2.108,2.084,2.082,2.111,2.082,2.084,2.108,2.085,2.082,2.11,2.108,2.084,2.082,2.111,2.082,2.084a2.595,2.595,0,0,1,0,4.195l-2.082,2.084-2.082,2.11-2.108,2.085-6.272,6.279-2.082,2.11-2.108,2.085-4.191,4.2a3.018,3.018,0,0,0-1.041,2.084,3.111,3.111,0,0,0,1.041,2.11l2.108,2.085,6.272,6.279,2.082,2.11,2.108,2.085,6.272,6.279H53.975Zm-16.274,2.085L33.51,704.9l-2.082-2.11L29.32,700.7l-2.082-2.085-2.082-2.11-2.108-2.085-2.082-2.11-2.108-2.084-2.082-2.085a3.089,3.089,0,0,1-1.041-2.11,3,3,0,0,1,1.041-2.084l2.082-2.111,2.108-2.084,6.272-6.279,2.082-2.111,2.108-2.084L37.7,663a2.634,2.634,0,0,0,0-4.195L16.775,637.86a2.634,2.634,0,0,1,0-4.2l6.272-6.279,2.108-2.084,2.082-2.111,6.272-6.279,2.108-2.084,2.082-2.111a3,3,0,0,0,1.041-2.084,3.09,3.09,0,0,0-1.041-2.111l-2.082-2.084-2.108-2.084-2.082-2.111-2.108-2.084-2.082-2.111-2.082-2.084-2.108-2.084-2.082-2.111-2.108-2.084-2.082-2.11a2.608,2.608,0,0,1,0-4.169l2.082-2.111,2.108-2.084,2.082-2.11,2.108-2.084,2.082-2.085,2.082-2.11,2.108-2.084,2.082-2.111,2.108-2.084,2.082-2.085a3.086,3.086,0,0,0,1.041-2.11,3,3,0,0,0-1.041-2.084l-2.082-2.111H23.048l2.108,2.111a3.016,3.016,0,0,1,1.041,2.084,3.108,3.108,0,0,1-1.041,2.11l-2.108,2.085-6.272,6.279-2.082,2.11-2.108,2.085-6.272,6.278-2.082,2.111a2.569,2.569,0,0,0,0,4.169l2.082,2.11,6.272,6.279,2.108,2.084,2.082,2.111,6.272,6.279,2.108,2.084a3.112,3.112,0,0,1,1.041,2.111,3.016,3.016,0,0,1-1.041,2.084l-4.19,4.2L18.858,619l-2.082,2.111L10.5,627.386,8.4,629.47l-2.082,2.11-2.082,2.085a2.595,2.595,0,0,0,0,4.2l2.082,2.084,2.082,2.11,2.108,2.084,2.082,2.111,2.108,2.084,2.082,2.085,2.082,2.11,2.108,2.084,2.082,2.111,2.108,2.084a2.634,2.634,0,0,1,0,4.195l-2.108,2.084-2.082,2.11-2.108,2.085-2.082,2.084-2.082,2.111-2.108,2.084L10.5,677.67,8.4,679.755l-2.082,2.084L4.231,683.95a2.955,2.955,0,0,0-1.067,2.084,3.043,3.043,0,0,0,1.067,2.11l18.817,18.838H35.619ZM-1,560.348a3.086,3.086,0,0,0,1.041,2.11l2.082,2.085a3.007,3.007,0,0,0,2.108,1.042,3,3,0,0,0,2.082-1.042L8.4,562.458a3.042,3.042,0,0,0,1.067-2.11A2.953,2.953,0,0,0,8.4,558.264l-2.082-2.111H2.123l-2.082,2.111A3,3,0,0,0-1,560.348Zm1.041,48.174A3.09,3.09,0,0,0-1,610.633a3,3,0,0,0,1.041,2.084l2.082,2.111a3.027,3.027,0,0,0,2.108,1.042,3.022,3.022,0,0,0,2.082-1.042L8.4,612.717a2.953,2.953,0,0,0,1.067-2.084A3.046,3.046,0,0,0,8.4,608.522l-2.082-2.084A3,3,0,0,0,4.231,605.4a3.007,3.007,0,0,0-2.108,1.042Zm0,50.285a2.634,2.634,0,0,0,0,4.195l2.082,2.084a3,3,0,0,0,2.108,1.042,3,3,0,0,0,2.082-1.042L8.4,663a2.6,2.6,0,0,0,0-4.195l-2.082-2.084a2.957,2.957,0,0,0-2.082-1.068,2.961,2.961,0,0,0-2.108,1.068Zm6.272,48.175a3,3,0,0,0-2.082-1.043,3,3,0,0,0-2.108,1.043h4.19ZM69.847,704.9l-2.082-2.11L65.656,700.7l-6.272-6.28-2.082-2.11-2.108-2.084-2.082-2.085a3.088,3.088,0,0,1-1.041-2.11,3,3,0,0,1,1.041-2.084l2.082-2.111,2.108-2.084,2.082-2.085,2.082-2.11,2.108-2.084,2.082-2.111,2.108-2.084,2.082-2.085,2.082-2.11L74.037,663a2.633,2.633,0,0,0,0-4.195l-2.108-2.084-2.082-2.111-6.272-6.279-2.108-2.084-2.082-2.111-6.272-6.278a2.634,2.634,0,0,1,0-4.2l20.925-20.948a3,3,0,0,0,1.041-2.084,3.09,3.09,0,0,0-1.041-2.111l-2.108-2.084-2.082-2.084-2.082-2.111-2.108-2.084-2.082-2.111-2.108-2.084-2.082-2.084L57.3,591.769l-2.108-2.084-2.082-2.11a2.608,2.608,0,0,1,0-4.169l2.082-2.111,2.108-2.084,2.082-2.11,2.082-2.084,2.108-2.085,2.082-2.11,2.108-2.084,2.082-2.111,2.082-2.084,2.108-2.085a3.086,3.086,0,0,0,1.041-2.11,3,3,0,0,0-1.041-2.084l-2.108-2.111H59.384l2.082,2.111a2.954,2.954,0,0,1,1.067,2.084,3.042,3.042,0,0,1-1.067,2.11L40.541,583.406a2.608,2.608,0,0,0,0,4.169l20.925,20.947a3.046,3.046,0,0,1,1.067,2.111,2.954,2.954,0,0,1-1.067,2.084l-2.082,2.111L57.3,616.912,55.194,619l-2.082,2.111L51,623.191,48.922,625.3l-2.082,2.084-2.108,2.084-2.082,2.11-2.108,2.085a2.634,2.634,0,0,0,0,4.2l2.108,2.084,2.082,2.11,2.108,2.084,2.082,2.111L51,648.333l2.108,2.085,2.082,2.11,2.108,2.084,2.082,2.111,2.082,2.084a2.595,2.595,0,0,1,0,4.195l-2.082,2.084L57.3,667.2l-2.108,2.085-6.272,6.279-2.082,2.11-2.108,2.085-4.19,4.2a3.019,3.019,0,0,0-1.041,2.084,3.111,3.111,0,0,0,1.041,2.11l2.108,2.085,6.272,6.279L51,698.618l2.108,2.085,6.272,6.279H71.929ZM51.893,252.743l-2.082-2.11L47.7,248.548l-6.272-6.279-2.082-2.11-2.108-2.085-2.082-2.084a3.088,3.088,0,0,1-1.041-2.11,3,3,0,0,1,1.041-2.084l2.082-2.111,2.108-2.085,2.082-2.084,2.082-2.11,2.108-2.085,2.082-2.11,2.108-2.084,2.082-2.085,2.082-2.11,2.108-2.084a2.633,2.633,0,0,0,0-4.2l-2.108-2.084-2.082-2.111-6.272-6.279L43.512,194.1l-2.082-2.111-6.272-6.278a2.634,2.634,0,0,1,0-4.195l20.925-20.948a3,3,0,0,0,1.041-2.085,3.089,3.089,0,0,0-1.041-2.11l-2.108-2.084L51.893,152.2l-2.082-2.111L47.7,148.005l-2.082-2.111-2.108-2.084-2.082-2.084-2.082-2.111-2.108-2.084-2.082-2.11a2.608,2.608,0,0,1,0-4.169l2.082-2.11,2.108-2.085,2.082-2.11,2.082-2.085,2.108-2.084,2.082-2.11,2.108-2.085,2.082-2.11,2.082-2.084,2.108-2.085a3.087,3.087,0,0,0,1.041-2.11,2.994,2.994,0,0,0-1.041-2.084L53.975,104H41.43l2.082,2.111a2.954,2.954,0,0,1,1.067,2.084,3.044,3.044,0,0,1-1.067,2.11L22.587,131.252a2.608,2.608,0,0,0,0,4.169l20.925,20.947a3.046,3.046,0,0,1,1.067,2.11,2.955,2.955,0,0,1-1.067,2.085l-2.082,2.111-2.082,2.084-2.108,2.084-2.082,2.11-2.108,2.085-2.082,2.11-2.082,2.085-2.108,2.084-2.082,2.11-2.108,2.085a2.634,2.634,0,0,0,0,4.195L24.7,187.79l2.082,2.11,2.108,2.084,2.082,2.111,2.082,2.084,2.108,2.084,2.082,2.111,2.108,2.084,2.082,2.111,2.082,2.084a2.595,2.595,0,0,1,0,4.2l-2.082,2.084-2.082,2.11-2.108,2.085-6.272,6.279-2.082,2.11L26.778,227.6l-4.191,4.2a3.018,3.018,0,0,0-1.041,2.084,3.111,3.111,0,0,0,1.041,2.11l2.108,2.084,6.272,6.28,2.082,2.11,2.108,2.084,6.272,6.279H53.975Zm-16.274,2.084-2.108-2.084-2.082-2.11-2.108-2.085-2.082-2.084-2.082-2.11-2.108-2.085-2.082-2.11-2.108-2.085-2.082-2.084a3.089,3.089,0,0,1-1.041-2.11,3,3,0,0,1,1.041-2.084l2.082-2.111,2.108-2.085,6.272-6.279,2.082-2.11,2.108-2.084,6.272-6.279a2.634,2.634,0,0,0,0-4.2L16.775,185.706a2.634,2.634,0,0,1,0-4.195l6.272-6.279,2.108-2.085,2.082-2.11,6.272-6.279,2.108-2.084,2.082-2.111a3,3,0,0,0,1.041-2.085,3.09,3.09,0,0,0-1.041-2.11l-2.082-2.084L33.51,152.2l-2.082-2.111-2.108-2.084-2.082-2.111-2.082-2.084-2.108-2.084-2.082-2.111-2.108-2.084-2.082-2.11a2.608,2.608,0,0,1,0-4.169l2.082-2.11,2.108-2.085,2.082-2.11,2.108-2.085,2.082-2.084,2.082-2.11,2.108-2.085,2.082-2.11,2.108-2.084L37.7,110.3a3.088,3.088,0,0,0,1.041-2.11A3,3,0,0,0,37.7,106.11L35.619,104H23.048l2.108,2.111a3.016,3.016,0,0,1,1.041,2.084,3.11,3.11,0,0,1-1.041,2.11l-2.108,2.085-6.272,6.279-2.082,2.11-2.108,2.084-6.272,6.28-2.082,2.11a2.569,2.569,0,0,0,0,4.169l2.082,2.11,6.272,6.279,2.108,2.084,2.082,2.111,6.272,6.279,2.108,2.084a3.112,3.112,0,0,1,1.041,2.11,3.018,3.018,0,0,1-1.041,2.085l-4.19,4.2-2.108,2.084-2.082,2.11-6.272,6.28L8.4,177.316l-2.082,2.11-2.082,2.085a2.595,2.595,0,0,0,0,4.195l2.082,2.084L8.4,189.9l2.108,2.084,2.082,2.111,2.108,2.084,2.082,2.084,2.082,2.111,2.108,2.084,2.082,2.111,2.108,2.084a2.634,2.634,0,0,1,0,4.2l-2.108,2.084-2.082,2.11-2.108,2.085-2.082,2.084-2.082,2.11-2.108,2.085-2.082,2.11L8.4,227.6l-2.082,2.085L4.231,231.8a2.955,2.955,0,0,0-1.067,2.084,3.043,3.043,0,0,0,1.067,2.11l18.817,18.837H35.619ZM-1,108.194A3.088,3.088,0,0,0,.041,110.3l2.082,2.085a3.007,3.007,0,0,0,2.108,1.042,3,3,0,0,0,2.082-1.042L8.4,110.3a3.044,3.044,0,0,0,1.067-2.11A2.953,2.953,0,0,0,8.4,106.11L6.313,104H2.123L0.041,106.11A3,3,0,0,0-1,108.194Zm1.041,48.174A3.09,3.09,0,0,0-1,158.478a3,3,0,0,0,1.041,2.085l2.082,2.111a3.027,3.027,0,0,0,2.108,1.042,3.022,3.022,0,0,0,2.082-1.042L8.4,160.563a2.955,2.955,0,0,0,1.067-2.085,3.046,3.046,0,0,0-1.067-2.11l-2.082-2.084a3,3,0,0,0-2.082-1.042,3.007,3.007,0,0,0-2.108,1.042Zm0,50.285a2.634,2.634,0,0,0,0,4.2l2.082,2.084a3,3,0,0,0,2.108,1.042,3,3,0,0,0,2.082-1.042L8.4,210.848a2.6,2.6,0,0,0,0-4.2l-2.082-2.084A2.958,2.958,0,0,0,4.231,203.5a2.963,2.963,0,0,0-2.108,1.069Zm69.806,46.09-2.082-2.11-2.108-2.085-6.272-6.279-2.082-2.11-2.108-2.085-2.082-2.084a3.088,3.088,0,0,1-1.041-2.11,3,3,0,0,1,1.041-2.084l2.082-2.111L57.3,227.6l2.082-2.084,2.082-2.11,2.108-2.085,2.082-2.11,2.108-2.084,2.082-2.085,2.082-2.11,2.108-2.084a2.633,2.633,0,0,0,0-4.2l-2.108-2.084-2.082-2.111-6.272-6.279L61.466,194.1l-2.082-2.111-6.272-6.278a2.634,2.634,0,0,1,0-4.195l20.925-20.948a3,3,0,0,0,1.041-2.085,3.09,3.09,0,0,0-1.041-2.11l-2.108-2.084L69.847,152.2l-2.082-2.111-2.108-2.084-2.082-2.111-2.108-2.084-2.082-2.084L57.3,139.615l-2.108-2.084-2.082-2.11a2.608,2.608,0,0,1,0-4.169l2.082-2.11,2.108-2.085,2.082-2.11,2.082-2.085,2.108-2.084,2.082-2.11,2.108-2.085,2.082-2.11,2.082-2.084,2.108-2.085a3.088,3.088,0,0,0,1.041-2.11,3,3,0,0,0-1.041-2.084L71.929,104H59.384l2.082,2.111a2.954,2.954,0,0,1,1.067,2.084,3.044,3.044,0,0,1-1.067,2.11L40.541,131.252a2.608,2.608,0,0,0,0,4.169l20.925,20.947a3.046,3.046,0,0,1,1.067,2.11,2.955,2.955,0,0,1-1.067,2.085l-2.082,2.111L57.3,164.758l-2.108,2.084-2.082,2.11L51,171.037l-2.082,2.11-2.082,2.085-2.108,2.084-2.082,2.11-2.108,2.085a2.634,2.634,0,0,0,0,4.195l2.108,2.084,2.082,2.11,2.108,2.084,2.082,2.111L51,196.179l2.108,2.084,2.082,2.111,2.108,2.084,2.082,2.111,2.082,2.084a2.595,2.595,0,0,1,0,4.2l-2.082,2.084-2.082,2.11-2.108,2.085-6.272,6.279-2.082,2.11L44.732,227.6l-4.19,4.2A3.019,3.019,0,0,0,39.5,233.88a3.111,3.111,0,0,0,1.041,2.11l2.108,2.084,6.272,6.28L51,246.464l2.108,2.084,6.272,6.279H71.929Z" transform="translate(0 -104)"/>
</svg>
