<svg viewBox="0 0 208 33" fill="none" xmlns="http://www.w3.org/2000/svg">
<path d="M16.5 27.7778L31 31L16.5 2L2 31L16.5 27.7778ZM16.5 27.7778V18.5" stroke="#F1F5F9" stroke-width="3" stroke-linecap="round" stroke-linejoin="round"/>
<path d="M40.2803 9.4668V31H36.4863V9.4668H40.2803ZM40.2803 1.67383V5.2627H36.4863V1.67383H40.2803ZM46.8633 31V9.4668H49.4268L50.1035 12.2148C51.9902 10.3828 54.2598 9.4668 56.9121 9.4668V12.625C54.3418 12.625 52.2568 13.5342 50.6572 15.3525V31H46.8633ZM76.9277 30.3848C75.1504 30.7949 73.2363 31 71.1855 31C63.5293 31 59.7012 27.2744 59.7012 19.8232C59.7012 12.9189 63.5293 9.4668 71.1855 9.4668C73.2363 9.4668 75.1504 9.67188 76.9277 10.082V13.1582C75.1504 12.748 73.168 12.543 70.9805 12.543C65.9902 12.543 63.4951 14.9697 63.4951 19.8232C63.4951 25.2236 65.9902 27.9238 70.9805 27.9238C73.168 27.9238 75.1504 27.7188 76.9277 27.3086V30.3848ZM84.5361 20.1514C84.5361 25.333 86.6895 27.9238 90.9961 27.9238C95.3027 27.9238 97.4561 25.333 97.4561 20.1514C97.4561 15.0791 95.3027 12.543 90.9961 12.543C86.6895 12.543 84.5361 15.0791 84.5361 20.1514ZM80.7422 20.2334C80.7422 13.0557 84.1602 9.4668 90.9961 9.4668C97.832 9.4668 101.25 13.0557 101.25 20.2334C101.25 27.3975 97.832 30.9795 90.9961 30.9795C84.1875 30.9795 80.7695 27.3975 80.7422 20.2334ZM106.377 31V9.4668H108.94L109.617 12.2148C111.818 10.3828 114.238 9.4668 116.877 9.4668C122.25 9.4668 124.937 12.1396 124.937 17.4854V31H121.143V17.4238C121.143 14.2246 119.55 12.625 116.364 12.625C114.19 12.625 112.126 13.5342 110.171 15.3525V31H106.377ZM131.109 5.98047H133.488L134.309 9.4668H140.133V12.543H134.903V24.9092C134.903 26.9189 135.771 27.9238 137.508 27.9238H140.133V31H136.523C132.914 31 131.109 29.0654 131.109 25.1963V5.98047ZM144.973 31V9.4668H147.536L148.213 12.2148C150.1 10.3828 152.369 9.4668 155.021 9.4668V12.625C152.451 12.625 150.366 13.5342 148.767 15.3525V31H144.973ZM161.604 20.1514C161.604 25.333 163.758 27.9238 168.064 27.9238C172.371 27.9238 174.524 25.333 174.524 20.1514C174.524 15.0791 172.371 12.543 168.064 12.543C163.758 12.543 161.604 15.0791 161.604 20.1514ZM157.811 20.2334C157.811 13.0557 161.229 9.4668 168.064 9.4668C174.9 9.4668 178.318 13.0557 178.318 20.2334C178.318 27.3975 174.9 30.9795 168.064 30.9795C161.256 30.9795 157.838 27.3975 157.811 20.2334ZM187.444 1.67383V31H183.65V1.67383H187.444Z" fill="#F1F5F9"/>
</svg>
